<?xml version="1.0" encoding="utf-8"?>
<!-- Generator: Adobe Illustrator 17.0.0, SVG Export Plug-In . SVG Version: 6.00 Build 0)  -->
<!DOCTYPE svg PUBLIC "-//W3C//DTD SVG 1.1//EN" "http://www.w3.org/Graphics/SVG/1.1/DTD/svg11.dtd">
<svg version="1.1" id="Layer_1" xmlns="http://www.w3.org/2000/svg" xmlns:xlink="http://www.w3.org/1999/xlink" x="0px" y="0px"
	 width="32px" height="32px" viewBox="0 0 32 32" enable-background="new 0 0 32 32" xml:space="preserve">
<g>
	<path d="M15.58,18.986h-0.777c-0.403,0-0.73-0.327-0.73-0.73c0-0.15,0.06-0.293,0.167-0.397c0.452-0.44,0.832-1.031,1.107-1.668
		c0.056,0.041,0.116,0.071,0.184,0.071c0.436,0,0.949-0.964,0.949-1.621s-0.06-1.19-0.497-1.19c-0.052,0-0.106,0.009-0.162,0.023
		c-0.031-1.782-0.481-4.005-3.202-4.005c-2.839,0-3.17,2.219-3.202,3.999c-0.04-0.008-0.08-0.017-0.117-0.017
		c-0.437,0-0.497,0.533-0.497,1.19s0.512,1.621,0.949,1.621c0.054,0,0.104-0.015,0.151-0.042c0.274,0.626,0.649,1.206,1.094,1.64
		c0.107,0.104,0.167,0.247,0.167,0.397c0,0.403-0.327,0.73-0.73,0.73H9.656c-1.662,0-3.009,1.347-3.009,3.009v0.834
		c0,0.525,0.425,0.95,0.95,0.95h10.041c0.525,0,0.95-0.425,0.95-0.95v-0.834C18.589,20.333,17.242,18.986,15.58,18.986z"/>
	<path d="M24.589,10.73h-8.421c0.243,0.538,0.417,1.2,0.489,2.019c0.18,0.111,0.315,0.29,0.425,0.506h7.507
		c0.389,0,0.704-0.315,0.704-0.704v-1.117C25.293,11.046,24.978,10.73,24.589,10.73z"/>
	<path d="M24.589,15.331h-7.335c-0.199,0.752-0.69,1.539-1.368,1.749c-0.02,0.037-0.043,0.07-0.064,0.107v0.669h8.766
		c0.389,0,0.704-0.315,0.704-0.704v-1.117C25.293,15.646,24.978,15.331,24.589,15.331z"/>
	<path d="M24.589,19.932h-5.725c0.377,0.598,0.599,1.304,0.599,2.062v0.463h5.126c0.389,0,0.704-0.315,0.704-0.704v-1.117
		C25.293,20.247,24.978,19.932,24.589,19.932z"/>
	<path d="M27.615,3.71H4.325C1.936,3.71,0,5.646,0,8.035v17.176c0,2.389,1.936,4.325,4.325,4.325h23.29
		c2.389,0,4.325-1.936,4.325-4.325V8.035C31.94,5.646,30.004,3.71,27.615,3.71z M29.898,25.211c0,1.259-1.024,2.283-2.283,2.283
		H4.325c-1.259,0-2.283-1.024-2.283-2.283V8.035c0-1.259,1.024-2.283,2.283-2.283h23.29c1.259,0,2.283,1.024,2.283,2.283V25.211z"/>
</g>
</svg>
