<?xml version="1.0" encoding="iso-8859-1"?>
<!-- Generator: Adobe Illustrator 16.0.0, SVG Export Plug-In . SVG Version: 6.00 Build 0)  -->
<!DOCTYPE svg PUBLIC "-//W3C//DTD SVG 1.1//EN" "http://www.w3.org/Graphics/SVG/1.1/DTD/svg11.dtd">
<svg version="1.1" id="Layer_1" xmlns="http://www.w3.org/2000/svg" xmlns:xlink="http://www.w3.org/1999/xlink" x="0px" y="0px"
	 width="31.178px" height="27.467px" viewBox="0 0 31.178 27.467" style="enable-background:new 0 0 31.178 27.467;"
	 xml:space="preserve">
<g>
	<circle cx="5.042" cy="3.866" r="3.866"/>
	<path d="M30.779,4.925h-9.346V3.866h-2.478v1.059h-8.877H9.446V6.2h0.631v2.806L8.625,8.314H6.449l-1.474,1.709L3.549,8.314
		L0.416,8.896l-0.2,6.949h1.328l0.072,1.443h0.202v0.879v0.65v6.883H1.551L0,26.037v1.43h1.321l1.542-0.251l0.014,0.251h1.708
		v-1.593v-0.173v-6.883h0.973v6.883v0.173v1.593h1.708l0.014-0.251l1.542,0.251h1.321v-1.43L8.59,25.701H8.325v-6.883v-0.65v-0.879
		H8.57l0.316-6.4l1.191,0.539v7.355h9.136v2.343l-5.042,5.689h1.812l3.403-3.845v3.845h1.042v-3.841l3.399,3.841h1.841l-5.071-5.689
		v-2.343h10.182V6.2h0.399V4.925H30.779z M29.887,17.845h-9.291h-1.383H10.97v-6.013l3.717,1.682l-0.014-2.317L10.97,9.432V6.2
		h18.917V17.845z"/>
</g>
<g>
</g>
<g>
</g>
<g>
</g>
<g>
</g>
<g>
</g>
<g>
</g>
<g>
</g>
<g>
</g>
<g>
</g>
<g>
</g>
<g>
</g>
<g>
</g>
<g>
</g>
<g>
</g>
<g>
</g>
</svg>
