<?xml version="1.0" encoding="utf-8"?>
<!-- Generator: Adobe Illustrator 16.0.4, SVG Export Plug-In . SVG Version: 6.00 Build 0)  -->
<!DOCTYPE svg PUBLIC "-//W3C//DTD SVG 1.1//EN" "http://www.w3.org/Graphics/SVG/1.1/DTD/svg11.dtd">
<svg version="1.1" id="Layer_1" xmlns="http://www.w3.org/2000/svg" xmlns:xlink="http://www.w3.org/1999/xlink" x="0px" y="0px"
	 width="50px" height="50px" viewBox="0 0 50 50" enable-background="new 0 0 50 50" xml:space="preserve">
<path fill="none" d="M16.479,22.892c0.112,0.27,0.342,0.821,0.479,0.969c0.148,0.083,0.259,0.221,0.307,0.387
	c1.212,4.2,4.422,7.126,7.803,7.115c3.363-0.011,6.525-2.959,7.691-7.168c0.047-0.165,0.155-0.305,0.303-0.39
	c0.134-0.147,0.355-0.696,0.465-0.965c0.075-0.185,0.146-0.361,0.214-0.499c0.278-0.574,0.188-1.151-0.075-1.284l-0.024-0.008
	c-0.171-0.063-0.302-0.19-0.371-0.347l-1.78,0.5c-0.028,0.007-0.058,0.012-0.087,0.012c-0.128,0.001-0.25-0.076-0.3-0.201
	l-0.612-1.479c-0.646,0.188-1.479,0.286-2.485,0.289c-3.241,0.011-7.379-0.925-8.474-1.187l-0.965,2.231
	c-0.059,0.136-0.202,0.214-0.348,0.192l-1.528-0.236c-0.074,0.126-0.189,0.229-0.334,0.282l-0.026,0.01
	c-0.263,0.134-0.347,0.711-0.066,1.283C16.331,22.536,16.401,22.709,16.479,22.892z"/>
<g>
	<path d="M15.253,33.052l1.088-1.088h7.96l-5.079-9.177l-3.756,0.764c-0.985,0.2-1.771,0.942-2.028,1.914L8.979,40.016
		c-0.21,0.792-0.039,1.637,0.461,2.286c0.5,0.65,1.273,1.03,2.093,1.03h3.721L15.253,33.052L15.253,33.052z"/>
	<path d="M41.021,40.016l-4.459-14.551c-0.261-0.984-1.062-1.731-2.062-1.921l-3.742-0.708l-5.058,9.127h8.56l1.088,1.088V43.33
		h3.121c0.819,0,1.593-0.38,2.093-1.03C41.061,41.65,41.229,40.808,41.021,40.016z"/>
	<polygon points="17.43,43.332 17.129,43.332 17.129,43.336 32.87,43.335 32.87,43.332 33.171,43.332 33.171,34.141 17.43,34.141 	
		"/>
	<rect x="13.083" y="44.32" width="23.833" height="1.968"/>
	<path d="M16.515,16.366c0.042,0.086,0.097,0.218,0.155,0.356c0.231,0.556,0.419,0.971,0.68,1.215
		c1.209,3.945,4.329,6.676,7.644,6.666c3.301-0.011,6.383-2.766,7.547-6.722c0.256-0.246,0.438-0.659,0.663-1.211
		c0.057-0.141,0.11-0.274,0.151-0.36c0.447-0.924,0.293-1.925-0.332-2.412c0-0.03,0-0.061,0-0.091
		c-0.016-4.897-0.655-10.12-8.1-10.095c-7.501,0.024-8.112,5.027-8.096,10.148c0,0.031,0.001,0.061,0.001,0.091
		C16.208,14.445,16.062,15.447,16.515,16.366z M17.562,14.789l0.022-0.009c0.123-0.045,0.221-0.132,0.284-0.24l1.299,0.201
		c0.125,0.018,0.246-0.049,0.296-0.164l0.821-1.896c0.929,0.223,4.447,1.018,7.204,1.008c0.854-0.002,1.563-0.085,2.112-0.246
		l0.521,1.257c0.043,0.106,0.146,0.172,0.255,0.171c0.024,0,0.05-0.004,0.074-0.01l1.513-0.425c0.06,0.133,0.171,0.242,0.314,0.295
		l0.021,0.007c0.225,0.112,0.299,0.603,0.062,1.091c-0.057,0.118-0.117,0.267-0.182,0.425c-0.092,0.229-0.281,0.695-0.396,0.82
		c-0.125,0.072-0.219,0.191-0.257,0.332c-0.99,3.578-3.68,6.083-6.539,6.093c-2.874,0.009-5.602-2.478-6.633-6.048
		c-0.041-0.141-0.134-0.258-0.261-0.329c-0.116-0.125-0.312-0.594-0.407-0.824c-0.064-0.155-0.126-0.303-0.184-0.419
		C17.266,15.393,17.337,14.902,17.562,14.789z"/>
</g>
</svg>
